<svg width="20" height="19" viewBox="0 0 20 19" fill="none" xmlns="http://www.w3.org/2000/svg">
<path fill-rule="evenodd" clip-rule="evenodd" d="M2.79797 2H0V0H4.44013L5.07398 3.19462C5.16705 3.6625 5.57777 4 6.05486 4H16.114C18.2086 4 19.6585 6.09212 18.923 8.05337L17.423 12.0534C16.9839 13.2243 15.8645 14 14.614 14H9.28432C6.89805 14 4.84434 12.3137 4.37993 9.97309L2.79797 2ZM5.62449 5.96918L6.34169 9.58386C6.62034 10.9882 7.85256 12 9.28432 12H14.614C15.0308 12 15.404 11.7414 15.5503 11.3511L17.0503 7.35112C17.2955 6.69737 16.8122 6 16.114 6H6.05486C5.90907 6 5.76535 5.98951 5.62449 5.96918Z" fill="#2D3132"/>
<path d="M8 17.5C8 18.3284 7.32843 19 6.5 19C5.67157 19 5 18.3284 5 17.5C5 16.6716 5.67157 16 6.5 16C7.32843 16 8 16.6716 8 17.5Z" fill="#2D3132"/>
<path d="M15.5 19C16.3284 19 17 18.3284 17 17.5C17 16.6716 16.3284 16 15.5 16C14.6716 16 14 16.6716 14 17.5C14 18.3284 14.6716 19 15.5 19Z" fill="#2D3132"/>
</svg>
